<?xml version="1.0" standalone="no"?>
<!DOCTYPE svg PUBLIC "-//W3C//DTD SVG 20010904//EN"
 "http://www.w3.org/TR/2001/REC-SVG-20010904/DTD/svg10.dtd">
<svg version="1.0" xmlns="http://www.w3.org/2000/svg"
 width="180.000000pt" height="180.000000pt" viewBox="0 0 180.000000 180.000000"
 preserveAspectRatio="xMidYMid meet">

<g transform="translate(0.000000,180.000000) scale(0.100000,-0.100000)"
fill="#000000" stroke="none">
<path d="M855 1522 c-28 -11 -59 -24 -70 -30 -11 -6 -27 -13 -36 -15 -31 -10
-77 -217 -48 -217 5 0 6 -18 3 -39 -5 -31 -2 -43 14 -59 11 -11 18 -23 15 -26
-3 -3 5 -10 18 -15 13 -5 34 -20 47 -34 l23 -25 -24 -6 c-14 -3 -30 -18 -37
-35 -10 -25 -27 -35 -104 -65 -150 -58 -181 -105 -247 -375 -18 -75 -20 -94
-9 -104 9 -9 14 -9 17 -1 4 12 64 4 113 -14 l24 -9 -29 -17 c-17 -10 -22 -15
-13 -12 24 7 289 76 292 76 2 0 6 -12 9 -27 3 -16 9 -36 12 -45 5 -13 -20 -30
-135 -87 -78 -39 -153 -71 -166 -71 -58 0 -89 42 -103 138 l-9 57 -1 -50 c-1
-54 24 -120 54 -145 10 -8 35 -14 56 -14 21 1 36 -2 34 -7 -3 -4 -1 -10 5 -14
5 -3 10 2 11 12 0 12 19 27 57 45 31 15 108 54 170 87 l114 59 54 -24 c39 -17
73 -24 117 -24 l62 0 2 -81 c1 -81 8 -104 22 -81 4 7 23 21 42 30 41 21 59 53
59 108 l0 42 115 12 c63 7 121 18 130 24 15 10 44 150 69 329 l7 47 -68 0
c-37 0 -115 -7 -173 -14 -58 -8 -106 -14 -107 -13 0 1 -12 27 -26 58 -21 47
-32 60 -71 79 -26 12 -50 20 -53 16 -3 -3 3 -9 13 -12 42 -16 77 -49 95 -91
24 -57 24 -63 -4 -63 -13 0 -28 -5 -34 -11 -6 -6 -26 -63 -44 -126 -19 -63
-35 -109 -38 -101 -6 19 -33 37 -56 38 -11 0 -51 -11 -90 -25 -38 -14 -74 -24
-79 -22 -6 3 -22 -1 -36 -9 -21 -11 -174 -54 -192 -54 -3 0 -3 38 -1 83 5 74
4 84 -11 84 -10 0 -15 -6 -12 -14 3 -8 3 -47 -1 -87 l-6 -73 -36 13 c-20 7
-61 18 -93 24 l-56 11 29 110 c62 231 83 260 233 325 l95 42 14 -22 c8 -11 26
-45 41 -73 23 -47 45 -68 46 -45 1 4 14 23 31 42 30 35 30 35 23 7 -4 -20 -1
-34 12 -49 19 -21 19 -21 -6 -9 -23 11 -24 11 -6 -3 10 -9 23 -13 28 -10 4 3
15 -10 23 -28 9 -20 14 -26 15 -15 0 10 -5 28 -11 39 -15 28 12 58 35 38 13
-10 16 -10 16 4 0 9 9 30 21 45 22 30 23 72 1 79 -11 3 -11 0 -1 -16 11 -17 9
-25 -12 -56 -32 -47 -45 -46 -20 2 10 20 17 49 16 64 -3 22 4 31 31 47 38 23
73 87 74 136 0 17 7 39 15 49 8 11 15 30 15 43 0 13 5 23 12 23 12 0 -26 36
-44 42 -7 3 -7 11 1 26 7 13 9 32 5 45 -4 12 -7 30 -5 41 1 10 -2 30 -8 45
-21 50 -187 76 -276 43z m253 -171 l3 -33 -40 7 c-27 4 -41 3 -41 -4 0 -6 -9
-11 -20 -11 -11 0 -20 4 -20 9 0 12 -78 2 -114 -15 -26 -13 -76 -19 -76 -10 0
1 5 17 11 34 8 24 20 34 47 42 26 7 38 6 43 -2 5 -7 20 -8 45 -3 153 29 158
29 162 -14z m-65 -58 c-7 -2 -21 -2 -30 0 -10 3 -4 5 12 5 17 0 24 -2 18 -5z
m77 -43 c0 -41 -3 -50 -18 -50 -10 0 -23 5 -30 12 -14 14 -16 52 -3 44 14 -9
41 4 41 19 0 8 -8 16 -17 18 -14 4 -12 5 5 6 20 1 22 -3 22 -49z m36 35 c6
-14 -4 -71 -10 -64 -10 12 -16 79 -6 79 6 0 13 -7 16 -15z m-162 -4 c9 -14
-22 -79 -43 -91 -27 -14 -34 -13 -59 10 -21 20 -30 69 -15 83 10 10 111 8 117
-2z m-156 -7 c17 -5 22 -14 22 -37 0 -70 77 -92 124 -36 14 17 26 41 26 55 0
34 34 33 36 -1 1 -14 -2 -25 -6 -25 -5 0 -6 -10 -3 -21 5 -18 3 -20 -17 -14
-16 5 -21 4 -18 -6 7 -21 40 -23 54 -4 8 10 14 12 19 6 3 -6 15 -11 26 -11 36
0 11 -81 -37 -119 -24 -19 -38 -22 -86 -19 -32 2 -58 1 -58 -3 0 -14 27 -28
58 -31 18 -1 32 -7 32 -13 0 -5 3 -19 6 -30 5 -20 -50 -105 -68 -105 -4 0 -8
20 -8 44 0 41 -3 46 -49 79 -39 28 -48 40 -44 57 4 14 -6 33 -36 65 -22 24
-41 49 -41 54 0 5 -9 11 -20 14 -11 3 -20 11 -20 17 0 8 9 10 25 6 18 -5 25
-2 25 9 0 8 -11 17 -25 21 -14 3 -25 10 -25 15 0 12 27 11 35 -1 12 -20 35
-10 35 15 0 27 3 28 38 19z m57 -320 l30 -21 -30 -36 c-17 -19 -33 -36 -36
-36 -4 -1 -12 13 -19 29 -7 17 -26 49 -42 72 -25 34 -28 44 -20 64 l11 23 38
-37 c21 -20 52 -46 68 -58z m653 -311 c-16 -93 -35 -173 -41 -179 -12 -12
-377 -57 -449 -56 -20 1 -56 9 -80 20 l-43 19 29 8 c18 5 36 4 47 -4 25 -15
39 -14 39 4 0 24 18 17 22 -7 2 -15 8 -4 17 32 25 105 72 264 82 276 5 6 31
15 57 19 108 17 250 33 298 34 l51 1 -29 -167z m-505 -80 c3 -5 -8 -9 -24 -10
-16 -1 -37 -7 -47 -13 -13 -8 -7 -9 25 -5 43 7 83 -7 83 -27 0 -9 -3 -9 -12 0
-16 16 -60 15 -83 -2 -18 -13 -17 -14 13 -21 49 -10 46 -22 -6 -22 -50 1 -79
-5 -111 -22 -27 -15 -28 -15 -40 20 -13 38 -9 46 32 58 18 6 57 19 87 30 61
22 77 24 83 14z m13 -68 c15 -11 16 -14 3 -15 -8 0 -24 7 -35 15 -15 11 -16
14 -3 15 8 0 24 -7 35 -15z m187 -137 c-3 -28 -13 -51 -30 -65 -41 -39 -53
-31 -53 36 0 64 3 67 62 70 25 1 26 -1 21 -41z"/>
<path d="M905 1270 c-19 -7 -18 -9 8 -19 28 -11 77 2 77 21 0 10 -58 9 -85 -2z"/>
<path d="M1013 1133 c-17 -6 -17 -43 0 -43 8 0 19 11 25 25 12 26 5 31 -25 18z"/>
<path d="M1357 644 c-23 -31 -22 -42 2 -15 17 20 19 20 26 4 5 -10 7 -22 6
-26 -1 -5 4 -5 10 -1 7 4 10 1 7 -7 -6 -19 -58 -24 -70 -7 -8 10 -9 10 -5 -2
4 -18 29 -24 63 -16 30 8 30 16 1 59 l-23 34 -17 -23z"/>
<path d="M645 820 c2 -19 7 -59 11 -87 4 -29 10 -53 15 -53 11 0 0 82 -17 135
l-14 40 5 -35z"/>
<path d="M711 778 c-1 -33 3 -58 9 -58 12 0 12 67 0 95 -6 14 -9 4 -9 -37z"/>
<path d="M868 363 c-36 -55 -50 -83 -40 -83 10 0 76 109 70 115 -3 3 -16 -12
-30 -32z"/>
</g>
</svg>
