<?xml version="1.0" encoding="UTF-8"?>
<svg xmlns="http://www.w3.org/2000/svg" viewBox="0 0 180 180">
  <path d="M90 26h11v1H90zM86 27h18v1H86zM83 28h24v1H83zM81 29h31v1H81zM79 30h33v1H79zM78 31h35v1H78zM74 32h1v1H74zM76 32h37v1H76zM73 33h41v1H73zM73 34h41v1H73zM72 35h42v1H72zM72 36h42v1H72zM72 37h42v1H72zM72 38h41v1H72zM71 39h43v1H71zM71 40h43v1H71zM70 41h44v1H70zM70 42h44v1H70zM70 43h44v1H70zM69 44h45v1H69zM69 45h44v1H69zM69 46h44v1H69zM69 47h44v1H69zM69 48h46v1H69zM69 49h44v1H69zM114 49h2v1H114zM69 50h44v1H69zM115 50h2v1H115zM118 50h1v1H118zM70 51h43v1H70zM116 51h3v1H116zM69 52h44v1H69zM116 52h1v1H116zM69 53h44v1H69zM116 53h1v1H116zM71 54h42v1H71zM116 54h1v1H116zM71 55h43v1H71zM116 55h1v1H116zM71 56h43v1H71zM115 56h1v1H115zM70 57h44v1H70zM115 57h1v1H115zM70 58h46v1H70zM70 59h45v1H70zM70 60h44v1H70zM70 61h44v1H70zM71 62h43v1H71zM71 63h43v1H71zM72 64h42v1H72zM74 65h40v1H74zM73 66h40v1H73zM75 67h38v1H75zM77 68h36v1H77zM78 69h35v1H78zM79 70h33v1H79zM80 71h32v1H80zM81 72h30v1H81zM82 73h28v1H82zM78 74h31v1H78zM77 75h31v1H77zM77 76h30v1H77zM76 77h29v1H76zM75 78h28v1H75zM75 79h28v1H75zM75 80h29v1H75zM73 81h33v1H73zM70 82h37v1H70zM68 83h39v1H68zM65 84h43v1H65zM62 85h49v1H62zM60 86h53v1H60zM58 87h58v1H58zM56 88h61v1H56zM55 89h64v1H55zM54 90h66v1H54zM52 91h68v1H52zM52 92h69v1H52zM51 93h70v1H51zM50 94h72v1H50zM50 95h72v1H50zM49 96h73v1H49zM49 97h74v1H49zM48 98h75v1H48zM143 98h16v1H143zM48 99h76v1H48zM134 99h25v1H134zM47 100h77v1H47zM127 100h32v1H127zM47 101h112v1H47zM46 102h112v1H46zM46 103h112v1H46zM46 104h112v1H46zM45 105h113v1H45zM45 106h113v1H45zM45 107h113v1H45zM44 108h113v1H44zM44 109h113v1H44zM44 110h113v1H44zM44 111h113v1H44zM43 112h114v1H43zM43 113h113v1H43zM43 114h113v1H43zM42 115h114v1H42zM42 116h114v1H42zM42 117h114v1H42zM42 118h114v1H42zM41 119h114v1H41zM41 120h114v1H41zM41 121h114v1H41zM41 122h114v1H41zM40 123h115v1H40zM40 124h115v1H40zM40 125h115v1H40zM40 126h114v1H40zM40 127h114v1H40zM39 128h115v1H39zM39 129h115v1H39zM39 130h115v1H39zM39 131h114v1H39zM40 132h113v1H40zM41 133h112v1H41zM41 134h111v1H41zM41 135h111v1H41zM41 136h108v1H41zM41 137h100v1H41zM41 138h91v1H41zM41 139h85v1H41zM41 140h86v1H41zM41 141h86v1H41zM41 142h86v1H41zM42 143h85v1H42zM42 144h85v1H42zM42 145h85v1H42zM42 146h84v1H42zM43 147h83v1H43zM43 148h83v1H43zM44 149h82v1H44zM44 150h82v1H44zM45 151h80v1H45zM46 152h77v1H46zM48 153h74v1H48zM56 154h65v1H56zM56 155h60v1H56zM85 156h32v1H85zM104 157h13v1H104z" fill="#000"/>
</svg>